<?xml version="1.0" encoding="UTF-8"?>
<!DOCTYPE svg PUBLIC "-//W3C//DTD SVG 1.1//EN" "http://www.w3.org/Graphics/SVG/1.1/DTD/svg11.dtd">
<svg xmlns="http://www.w3.org/2000/svg" version="1.1" width="115px" height="36px" style="shape-rendering:geometricPrecision; text-rendering:geometricPrecision; image-rendering:optimizeQuality; fill-rule:evenodd; clip-rule:evenodd" xmlns:xlink="http://www.w3.org/1999/xlink">
<g><path style="opacity:1" fill="#1385fd" d="M 114.5,7.5 C 114.5,7.83333 114.5,8.16667 114.5,8.5C 104.899,13.2314 96.3994,19.5647 89,27.5C 84.2683,23.9632 82.2683,19.2965 83,13.5C 84.0414,15.5852 85.5414,17.2519 87.5,18.5C 95.0372,11.2311 104.037,7.5644 114.5,7.5 Z"/></g>
<g><path style="opacity:1" fill="#f46926" d="M 52.5,10.5 C 53.8734,10.3433 55.2068,10.51 56.5,11C 54.0411,14.75 51.7078,18.5834 49.5,22.5C 48.277,23.6139 46.9437,23.7805 45.5,23C 47.7187,18.7253 50.052,14.5586 52.5,10.5 Z"/></g>
<g><path style="opacity:1" fill="#f46926" d="M 76.5,10.5 C 77.8734,10.3433 79.2068,10.51 80.5,11C 78.0411,14.75 75.7078,18.5834 73.5,22.5C 72.277,23.6139 70.9437,23.7805 69.5,23C 71.7187,18.7253 74.052,14.5586 76.5,10.5 Z"/></g>
<g><path style="opacity:1" fill="#1c84fd" d="M 8.5,13.5 C 16.1915,11.9831 17.8582,14.1498 13.5,20C 19.5,20.6667 25.5,20.6667 31.5,20C 34.431,16.6188 33.7643,15.7855 29.5,17.5C 27.1282,16.6372 27.1282,15.4705 29.5,14C 32.146,13.5026 34.8127,13.3359 37.5,13.5C 37.0496,17.2315 35.3829,20.3982 32.5,23C 23.0113,23.3386 13.678,23.5053 4.5,23.5C 5.29154,19.9217 6.62488,16.5884 8.5,13.5 Z"/></g>
<g><path style="opacity:1" fill="#f3681f" d="M 42.5,13.5 C 43.9953,13.4148 44.9953,14.0815 45.5,15.5C 43.4874,21.0195 39.8207,24.5195 34.5,26C 34.1667,25.6667 33.8333,25.3333 33.5,25C 37.4784,21.864 40.4784,18.0306 42.5,13.5 Z"/></g>
<g><path style="opacity:1" fill="#f3661a" d="M 60.5,10.5 C 65.302,10.6432 65.302,11.8098 60.5,14C 61.3081,14.3076 61.9747,14.8076 62.5,15.5C 59.3313,19.5571 60.3313,21.0571 65.5,20C 66.6403,17.5417 68.1403,15.375 70,13.5C 71.0588,13.6301 71.8921,14.1301 72.5,15C 70.7433,17.8456 68.7433,20.5122 66.5,23C 61.1107,23.0204 56.1107,24.0204 51.5,26C 51.1667,25.6667 50.8333,25.3333 50.5,25C 55.6409,21.368 58.9743,16.5347 60.5,10.5 Z"/></g>
<g><path style="opacity:1" fill="#1a85fd" d="M 23.5,24.5 C 31.8761,23.9393 32.2095,25.9393 24.5,30.5C 23.8333,30.1667 23.1667,29.8333 22.5,29.5C 22.5786,27.8717 22.9119,26.2051 23.5,24.5 Z"/></g>
<g><path style="opacity:1" fill="#f2601e" d="M 61.5,24.5 C 66.4948,24.1507 66.8281,25.1507 62.5,27.5C 61.8333,27.3333 61.1667,27.1667 60.5,27C 61.2524,26.3292 61.5858,25.4959 61.5,24.5 Z"/></g>
</svg>
